<?xml version="1.0" encoding="iso-8859-1"?>
<!-- Generator: Adobe Illustrator 19.0.0, SVG Export Plug-In . SVG Version: 6.00 Build 0)  -->
<svg version="1.1" id="Capa_1" xmlns="http://www.w3.org/2000/svg" xmlns:xlink="http://www.w3.org/1999/xlink" x="0px" y="0px"
	 viewBox="0 0 511.999 511.999" style="enable-background:new 0 0 511.999 511.999;" xml:space="preserve">
<g>
	<g>
		<path d="M294.974,35.671h-0.454c-5.522,0-10,4.477-10,10c0,5.523,4.478,10,10,10h0.454c5.522,0,10-4.477,10-10
			C304.974,40.148,300.496,35.671,294.974,35.671z"/>
	</g>
</g>
<g>
	<g>
		<path d="M371.799,35.671H325.89c-5.522,0-10,4.477-10,10c0,5.523,4.477,10,10,10h45.909c5.522,0,10-4.477,10-10
			C381.799,40.148,377.321,35.671,371.799,35.671z"/>
	</g>
</g>
<g>
	<g>
		<path d="M254.973,35.671h-0.455c-5.523,0-10,4.477-10,10c0,5.523,4.478,10,10,10h0.455c5.522,0,10-4.477,10-10
			C264.973,40.148,260.495,35.671,254.973,35.671z"/>
	</g>
</g>
<g>
	<g>
		<path d="M493.771,291.42l-62.375-31.911c-1.41-0.721-2.971-1.097-4.555-1.097h-1.391V30.538C425.451,13.699,411.752,0,394.914,0
			H43.318C26.479,0,12.78,13.699,12.78,30.538v450.923c0,16.839,12.675,30.538,28.256,30.538h385.806c5.522,0,10-4.477,10-10V378.85
			l9.671,4.948c2.36,1.208,5.107,1.429,7.629,0.613c2.524-0.815,4.62-2.6,5.828-4.961l38.149-74.572
			C500.635,299.961,498.688,293.936,493.771,291.42z M32.78,30.538C32.78,24.727,37.508,20,43.318,20h351.596
			c5.811,0,10.537,4.727,10.537,10.538v60.807H32.78V30.538z M224.685,491.998H41.036c-4.475,0.001-8.256-4.825-8.256-10.537
			v-332.65h35.91c5.523,0,10-4.477,10-10c0-5.523-4.477-10-10-10H32.78v-17.467h372.671v147.068H369.24
			c-5.312,0-9.646,4.145-9.969,9.376c-5.809-26.25-18.913-50.367-38.327-69.909c-27.15-27.331-63.33-42.382-101.873-42.382
			c-79.192,0-143.619,64.427-143.619,143.619s64.427,143.619,143.619,143.619c1.861,0,3.736-0.051,5.614-0.125V491.998z
			 M224.685,422.596c-1.879,0.086-3.755,0.142-5.614,0.142c-68.164,0-123.619-55.456-123.619-123.619S150.908,175.5,219.071,175.5
			c33.176,0,64.316,12.955,87.685,36.478c22.051,22.196,34.646,51.25,35.829,82.334c-3.604,1.652-7.605,2.581-11.822,2.581
			c-6.016-0.003-11.598-1.883-16.201-5.079c-1.749-23.248-11.808-44.848-28.624-61.253c-17.987-17.547-41.734-27.21-66.867-27.21
			c-52.806,0-95.767,42.961-95.767,95.767c0,52.807,42.96,95.768,95.767,95.768c1.871,0,3.743-0.075,5.614-0.184V422.596z
			 M159.076,307.092l31.908,62.373c-27.908-11.184-47.679-38.492-47.679-70.348c0-41.778,33.989-75.767,75.767-75.767
			c27.087,0,50.695,13.879,64.081,35.062h-48.467c-1.583,0-3.144,0.376-4.554,1.097l-66.708,34.126
			C158.507,296.151,156.56,302.176,159.076,307.092z M446.72,361.438l-15.323-7.839c-3.1-1.585-6.802-1.445-9.772,0.372
			c-2.971,1.817-4.782,5.048-4.782,8.531V492H244.685v-26.3h66.223c5.522,0,10-4.477,10-10s-4.478-10-10-10h-66.223v-83.199
			c0-3.482-1.811-6.714-4.782-8.531c-2.971-1.817-6.673-1.957-9.773-0.372l-19.655,10.055l-29.041-56.767l55.659-28.474h46.229
			c2.072,9.838,7.143,18.581,14.198,25.241c0.362,0.385,0.747,0.747,1.165,1.07c8.553,7.565,19.786,12.167,32.076,12.167
			c10.043,0,19.379-3.076,27.126-8.327c0.401-0.246,0.789-0.511,1.15-0.809c9.635-6.944,16.634-17.327,19.164-29.341h46.229
			l51.327,26.259L446.72,361.438z"/>
	</g>
</g>
<g>
	<g>
		<path d="M100.059,128.811h-0.455c-5.523,0-10,4.477-10,10c0,5.524,4.477,10,10,10h0.455c5.523,0,10-4.477,10-10
			C110.059,133.288,105.582,128.811,100.059,128.811z"/>
	</g>
</g>
<g>
	<g>
		<path d="M341.965,445.7h-0.908c-5.522,0-10,4.477-10,10s4.478,10,10,10h0.908c5.523,0,10-4.477,10-10S347.487,445.7,341.965,445.7
			z"/>
	</g>
</g>
<g>
</g>
<g>
</g>
<g>
</g>
<g>
</g>
<g>
</g>
<g>
</g>
<g>
</g>
<g>
</g>
<g>
</g>
<g>
</g>
<g>
</g>
<g>
</g>
<g>
</g>
<g>
</g>
<g>
</g>
</svg>
